<svg width="27" height="24" viewBox="0 0 27 24" fill="none" xmlns="http://www.w3.org/2000/svg">
<mask id="path-1-inside-1" fill="white">
<path fill-rule="evenodd" clip-rule="evenodd" d="M4.18322 17.041C3.42494 15.5486 3 13.8751 3 12.1075C3 5.82238 8.37258 0.727295 15 0.727295C21.6274 0.727295 27 5.82238 27 12.1075C27 18.3926 21.6274 23.4877 15 23.4877C13.1093 23.4877 11.3206 23.073 9.72979 22.3343L0 23.4877L4.18322 17.041Z"/>
</mask>
<path d="M4.18322 17.041L5.02208 17.5854L5.33581 17.1019L5.07475 16.5881L4.18322 17.041ZM9.72979 22.3343L10.1509 21.4273L9.89371 21.3078L9.61207 21.3412L9.72979 22.3343ZM0 23.4877L-0.838865 22.9433L-1.99933 24.7317L0.117719 24.4807L0 23.4877ZM2 12.1075C2 14.0376 2.46443 15.8658 3.29169 17.494L5.07475 16.5881C4.38545 15.2314 4 13.7126 4 12.1075H2ZM15 -0.272705C7.87093 -0.272705 2 5.22078 2 12.1075H4C4 6.42397 8.87424 1.72729 15 1.72729V-0.272705ZM28 12.1075C28 5.22078 22.1291 -0.272705 15 -0.272705V1.72729C21.1258 1.72729 26 6.42397 26 12.1075H28ZM15 24.4877C22.1291 24.4877 28 18.9942 28 12.1075H26C26 17.791 21.1258 22.4877 15 22.4877V24.4877ZM9.30863 23.2413C11.0299 24.0405 12.9621 24.4877 15 24.4877V22.4877C13.2564 22.4877 11.6114 22.1054 10.1509 21.4273L9.30863 23.2413ZM9.61207 21.3412L-0.117719 22.4946L0.117719 24.4807L9.84751 23.3273L9.61207 21.3412ZM0.838865 24.032L5.02208 17.5854L3.34436 16.4967L-0.838865 22.9433L0.838865 24.032Z" fill="#0B0A0A" mask="url(#path-1-inside-1)"/>
</svg>
