<svg width="175" height="243" viewBox="0 0 175 243" fill="none" xmlns="http://www.w3.org/2000/svg">
<g filter="url(#filter0_d)">
<rect x="4" width="167" height="235" rx="7" fill="#FBFBFB"/>
</g>
<path d="M25.4302 193.083H21.9263V195.286H26.0649V197H19.6982V187.758H26.0776V189.478H21.9263V191.427H25.4302V193.083ZM31.0791 194.486L32.9199 187.758H35.4082L32.2978 197H29.8603L26.7754 187.758H29.2446L31.0791 194.486ZM42.3393 193.083H38.8354V195.286H42.9741V197H36.6074V187.758H42.9868V189.478H38.8354V191.427H42.3393V193.083ZM47.8359 193.737H46.6298V197H44.4018V187.758H48.039C49.135 187.758 49.992 188.001 50.6098 188.488C51.2276 188.974 51.5366 189.662 51.5366 190.551C51.5366 191.194 51.4054 191.727 51.143 192.15C50.8849 192.574 50.4786 192.916 49.9243 193.179L51.8539 196.905V197H49.4672L47.8359 193.737ZM46.6298 192.017H48.039C48.4622 192.017 48.7796 191.907 48.9912 191.687C49.207 191.463 49.3149 191.152 49.3149 190.754C49.3149 190.356 49.207 190.045 48.9912 189.821C48.7753 189.592 48.4579 189.478 48.039 189.478H46.6298V192.017ZM59.1342 193.083H55.6303V195.286H59.769V197H53.4023V187.758H59.7817V189.478H55.6303V191.427H59.1342V193.083ZM68.579 189.478H65.8051V197H63.577V189.478H60.8539V187.758H68.579V189.478ZM77.4017 189.478H74.6278V197H72.3998V189.478H69.6766V187.758H77.4017V189.478ZM82.244 197V187.758H85.221C86.0378 187.758 86.772 187.944 87.4237 188.316C88.0754 188.685 88.5832 189.207 88.9471 189.884C89.3153 190.557 89.5015 191.312 89.5057 192.15V192.576C89.5057 193.422 89.3259 194.182 88.9662 194.854C88.6107 195.523 88.1071 196.048 87.4554 196.429C86.8079 196.805 86.0843 196.996 85.2845 197H82.244ZM84.472 189.478V195.286H85.2464C85.8854 195.286 86.3763 195.06 86.7191 194.607C87.0619 194.15 87.2332 193.473 87.2332 192.576V192.176C87.2332 191.283 87.0619 190.61 86.7191 190.157C86.3763 189.704 85.877 189.478 85.221 189.478H84.472ZM93.5423 197H91.3206V187.758H93.5423V197ZM103.089 193.871C103.059 194.514 102.886 195.083 102.568 195.578C102.251 196.069 101.804 196.45 101.229 196.721C100.658 196.992 100.004 197.127 99.2674 197.127C98.0529 197.127 97.0965 196.731 96.3982 195.94C95.7 195.149 95.3509 194.031 95.3509 192.588V192.131C95.3509 191.226 95.5075 190.434 95.8206 189.757C96.138 189.076 96.5929 188.551 97.1853 188.183C97.7778 187.811 98.4633 187.625 99.242 187.625C100.363 187.625 101.265 187.921 101.946 188.513C102.627 189.101 103.015 189.914 103.108 190.951H100.886C100.869 190.388 100.727 189.984 100.461 189.738C100.194 189.493 99.7879 189.37 99.242 189.37C98.6876 189.37 98.2814 189.577 98.0232 189.992C97.7651 190.407 97.6297 191.069 97.617 191.979V192.633C97.617 193.619 97.7397 194.323 97.9852 194.747C98.2348 195.17 98.6622 195.381 99.2674 195.381C99.7794 195.381 100.171 195.261 100.442 195.02C100.713 194.778 100.856 194.395 100.873 193.871H103.089ZM107.804 193.56L106.89 194.562V197H104.662V187.758H106.89V191.833L107.665 190.659L109.658 187.758H112.413L109.29 191.846L112.413 197H109.772L107.804 193.56ZM115.872 197H113.65V187.758H115.872V197ZM125.659 197H123.444L120.169 191.249V197H117.941V187.758H120.169L123.438 193.509V187.758H125.659V197ZM132.356 194.543C132.356 194.218 132.239 193.964 132.007 193.782C131.778 193.6 131.374 193.411 130.794 193.217C130.214 193.022 129.74 192.834 129.372 192.652C128.175 192.064 127.576 191.255 127.576 190.227C127.576 189.715 127.724 189.264 128.02 188.875C128.321 188.481 128.744 188.177 129.29 187.961C129.836 187.741 130.449 187.631 131.131 187.631C131.795 187.631 132.39 187.749 132.914 187.986C133.443 188.223 133.854 188.562 134.146 189.002C134.438 189.438 134.584 189.937 134.584 190.5H132.362C132.362 190.123 132.246 189.831 132.013 189.624C131.784 189.417 131.473 189.313 131.08 189.313C130.682 189.313 130.367 189.402 130.134 189.58C129.905 189.753 129.791 189.975 129.791 190.246C129.791 190.483 129.918 190.699 130.172 190.894C130.426 191.084 130.872 191.283 131.511 191.49C132.15 191.693 132.675 191.913 133.086 192.15C134.084 192.726 134.584 193.519 134.584 194.531C134.584 195.339 134.279 195.974 133.67 196.435C133.06 196.896 132.224 197.127 131.162 197.127C130.413 197.127 129.734 196.994 129.125 196.727C128.52 196.456 128.063 196.088 127.754 195.623C127.449 195.153 127.297 194.613 127.297 194.004H129.531C129.531 194.499 129.658 194.865 129.912 195.102C130.17 195.335 130.587 195.451 131.162 195.451C131.53 195.451 131.82 195.373 132.032 195.216C132.248 195.056 132.356 194.831 132.356 194.543ZM144.073 192.569C144.073 193.471 143.906 194.268 143.571 194.962C143.237 195.656 142.761 196.192 142.143 196.568C141.53 196.941 140.829 197.127 140.042 197.127C139.255 197.127 138.557 196.947 137.947 196.587C137.338 196.223 136.862 195.705 136.519 195.032C136.181 194.359 136.003 193.587 135.986 192.715V192.195C135.986 191.289 136.151 190.492 136.481 189.802C136.815 189.108 137.292 188.572 137.909 188.196C138.531 187.819 139.238 187.631 140.029 187.631C140.812 187.631 141.511 187.817 142.124 188.189C142.738 188.562 143.214 189.093 143.552 189.783C143.895 190.468 144.069 191.255 144.073 192.144V192.569ZM141.807 192.182C141.807 191.264 141.652 190.568 141.343 190.094C141.039 189.616 140.601 189.376 140.029 189.376C138.912 189.376 138.322 190.214 138.258 191.89L138.252 192.569C138.252 193.475 138.402 194.171 138.703 194.658C139.003 195.144 139.45 195.388 140.042 195.388C140.605 195.388 141.039 195.149 141.343 194.67C141.648 194.192 141.803 193.505 141.807 192.607V192.182ZM153.461 197H151.245L147.97 191.249V197H145.742V187.758H147.97L151.239 193.509V187.758H153.461V197Z" fill="#090808" fill-opacity="0.79"/>
<path d="M75.248 212.859C75.2051 213.859 74.957 214.654 74.5039 215.244C74.0547 215.83 73.4492 216.123 72.6875 216.123C72.3516 216.123 72.0605 216.051 71.8145 215.906C71.5723 215.762 71.3887 215.555 71.2637 215.285C70.873 215.832 70.3633 216.105 69.7344 216.105C69.1641 216.105 68.7227 215.865 68.4102 215.385C68.0977 214.904 67.9805 214.27 68.0586 213.48C68.1289 212.836 68.291 212.264 68.5449 211.764C68.8027 211.26 69.127 210.873 69.5176 210.604C69.9082 210.334 70.3301 210.199 70.7832 210.199C71.3418 210.199 71.8184 210.328 72.2129 210.586L72.582 210.838L72.2832 214.225C72.2441 214.533 72.2773 214.77 72.3828 214.934C72.4922 215.098 72.6641 215.18 72.8984 215.18C73.2578 215.18 73.5586 214.971 73.8008 214.553C74.043 214.131 74.1758 213.58 74.1992 212.9C74.2656 211.537 73.9902 210.49 73.373 209.76C72.7598 209.025 71.8496 208.658 70.6426 208.658C69.8887 208.658 69.2168 208.85 68.627 209.232C68.0371 209.615 67.5723 210.16 67.2324 210.867C66.8926 211.57 66.7012 212.377 66.6582 213.287C66.5957 214.67 66.873 215.738 67.4902 216.492C68.1074 217.25 69.0312 217.629 70.2617 217.629C70.5859 217.629 70.9258 217.592 71.2812 217.518C71.6367 217.447 71.9434 217.352 72.2012 217.23L72.4238 218.133C72.1855 218.289 71.8633 218.414 71.457 218.508C71.0547 218.605 70.6484 218.654 70.2383 218.654C69.207 218.654 68.3281 218.445 67.6016 218.027C66.875 217.613 66.332 217 65.9727 216.188C65.6172 215.379 65.4629 214.412 65.5098 213.287C65.5566 212.209 65.8027 211.242 66.248 210.387C66.6934 209.531 67.2988 208.871 68.0645 208.406C68.834 207.938 69.7012 207.703 70.666 207.703C71.6465 207.703 72.4902 207.914 73.1973 208.336C73.9043 208.754 74.4336 209.354 74.7852 210.135C75.1367 210.916 75.291 211.824 75.248 212.859ZM69.3594 213.48C69.3164 213.996 69.3613 214.389 69.4941 214.658C69.627 214.924 69.8418 215.057 70.1387 215.057C70.3301 215.057 70.5117 214.973 70.6836 214.805C70.8555 214.637 70.998 214.395 71.1113 214.078L71.3574 211.307C71.2051 211.256 71.0488 211.23 70.8887 211.23C70.4395 211.23 70.0898 211.422 69.8398 211.805C69.5938 212.188 69.4336 212.746 69.3594 213.48ZM82.1206 212.303H78.7456V214.588H82.7066V216H76.9878V207.469H82.6948V208.893H78.7456V210.926H82.1206V212.303ZM84.2178 216V207.469H86.8428C87.5928 207.469 88.2627 207.639 88.8526 207.979C89.4463 208.314 89.9092 208.795 90.2412 209.42C90.5733 210.041 90.7393 210.748 90.7393 211.541V211.934C90.7393 212.727 90.5752 213.432 90.2471 214.049C89.9229 214.666 89.4639 215.145 88.8702 215.484C88.2764 215.824 87.6065 215.996 86.8604 216H84.2178ZM85.9756 208.893V214.588H86.8252C87.5127 214.588 88.0381 214.363 88.4014 213.914C88.7647 213.465 88.9502 212.822 88.958 211.986V211.535C88.958 210.668 88.7784 210.012 88.419 209.566C88.0596 209.117 87.5342 208.893 86.8428 208.893H85.9756ZM94.3716 216H92.6138V207.469H94.3716V216ZM103.184 213.158C103.117 214.076 102.777 214.799 102.164 215.326C101.555 215.854 100.75 216.117 99.7501 216.117C98.6563 216.117 97.795 215.75 97.1661 215.016C96.5411 214.277 96.2286 213.266 96.2286 211.98V211.459C96.2286 210.639 96.3731 209.916 96.6622 209.291C96.9513 208.666 97.3634 208.188 97.8985 207.855C98.4376 207.52 99.0626 207.352 99.7735 207.352C100.758 207.352 101.551 207.615 102.152 208.143C102.754 208.67 103.102 209.41 103.195 210.363H101.438C101.395 209.812 101.24 209.414 100.975 209.168C100.713 208.918 100.313 208.793 99.7735 208.793C99.1876 208.793 98.7481 209.004 98.4552 209.426C98.1661 209.844 98.0177 210.494 98.0098 211.377V212.021C98.0098 212.943 98.1485 213.617 98.4259 214.043C98.7071 214.469 99.1485 214.682 99.7501 214.682C100.293 214.682 100.697 214.559 100.963 214.312C101.233 214.062 101.387 213.678 101.426 213.158H103.184ZM107.49 212.578L106.576 213.562V216H104.818V207.469H106.576V211.336L107.349 210.275L109.523 207.469H111.685L108.656 211.26L111.773 216H109.681L107.49 212.578Z" fill="black" fill-opacity="0.35"/>
<defs>
<filter id="filter0_d" x="0" y="0" width="175" height="243" filterUnits="userSpaceOnUse" color-interpolation-filters="sRGB">
<feFlood flood-opacity="0" result="BackgroundImageFix"/>
<feColorMatrix in="SourceAlpha" type="matrix" values="0 0 0 0 0 0 0 0 0 0 0 0 0 0 0 0 0 0 127 0"/>
<feOffset dy="4"/>
<feGaussianBlur stdDeviation="2"/>
<feColorMatrix type="matrix" values="0 0 0 0 0 0 0 0 0 0 0 0 0 0 0 0 0 0 0.37 0"/>
<feBlend mode="normal" in2="BackgroundImageFix" result="effect1_dropShadow"/>
<feBlend mode="normal" in="SourceGraphic" in2="effect1_dropShadow" result="shape"/>
</filter>
</defs>
</svg>
